<svg width="600" height="600" viewBox="0 0 600 600" fill="none" xmlns="http://www.w3.org/2000/svg">
<g clip-path="url(#clip0_1055_102)">
<mask id="mask0_1055_102" style="mask-type:alpha" maskUnits="userSpaceOnUse" x="0" y="2" width="600" height="600">
<path d="M600 302C600 467.685 465.685 602 300 602C134.315 602 0 467.685 0 302C0 136.315 134.315 2 300 2C465.685 2 600 136.315 600 302Z" fill="url(#paint0_radial_1055_102)"/>
</mask>
<g mask="url(#mask0_1055_102)">
<path d="M600 302C600 467.685 465.685 602 300 602C134.315 602 0 467.685 0 302C0 136.315 134.315 2 300 2C465.685 2 600 136.315 600 302Z" fill="url(#paint1_linear_1055_102)"/>
</g>
<path d="M385.641 462H316V426.29C316.011 422.987 315.353 419.717 314.065 416.675C312.777 413.634 310.887 410.885 308.508 408.595C302.516 402.689 293.797 399.368 284.625 399.501C276.466 399.578 268.596 402.53 262.399 407.837C258.336 411.431 253.5 417.649 253.5 426.915V462H184.453C172.933 461.987 161.887 457.405 153.741 449.259C145.595 441.113 141.013 430.068 141 418.548V349.502H176.711C183.867 349.502 190.828 346.44 196.313 340.909C199.364 337.833 201.777 334.185 203.413 330.173C205.048 326.162 205.875 321.866 205.844 317.534C205.61 300.98 191.985 287.004 176.086 287.004H141V217.209C140.978 211.52 142.111 205.887 144.331 200.649C146.551 195.412 149.811 190.68 153.914 186.741C162.109 178.836 173.068 174.446 184.453 174.506H233.86V163.194C233.86 156.396 235.214 149.665 237.843 143.396C240.472 137.126 244.324 131.443 249.173 126.678C254.023 121.913 259.773 118.162 266.088 115.643C272.402 113.124 279.156 111.889 285.953 112.008C313.68 112.492 336.235 135.742 336.235 163.827V174.506H385.641C391.286 174.446 396.886 175.513 402.114 177.645C407.341 179.778 412.09 182.932 416.082 186.924C420.074 190.916 423.229 195.665 425.361 200.892C427.494 206.119 428.561 211.72 428.5 217.365V266.77H439.172C467.75 266.77 491 289.426 491 317.269C491 345.87 468.039 369.142 439.813 369.142H428.5V418.548C428.5 442.508 409.274 462 385.641 462Z" fill="url(#paint2_linear_1055_102)"/>
<path fill-rule="evenodd" clip-rule="evenodd" d="M342.25 286.975V277.75H341.406C338.472 277.75 335.631 278.331 332.884 279.484C330.15 280.63 327.678 282.321 325.619 284.453C323.614 286.468 322.042 288.87 320.997 291.513V291.522C320.067 294.031 319.444 296.644 319.141 299.303V299.322C318.874 302.01 318.799 304.714 318.916 307.413C319.028 310.131 319.084 312.85 319.084 315.559C319.084 317.463 318.709 319.244 317.987 320.922C316.612 324.197 314.05 326.841 310.816 328.309C309.166 329.03 307.384 329.397 305.584 329.388H304.75V338.613H305.594C307.422 338.613 309.156 338.988 310.806 339.747L310.816 339.756C312.484 340.488 313.9 341.481 315.081 342.738L315.1 342.756C316.319 343.975 317.284 345.428 317.978 347.116L317.987 347.134C318.719 348.822 319.084 350.584 319.084 352.441C319.084 355.159 319.028 357.878 318.916 360.588C318.803 363.363 318.878 366.072 319.141 368.744C319.45 371.397 320.069 373.984 320.988 376.478C321.981 379.038 323.528 381.4 325.619 383.547C327.709 385.703 330.137 387.362 332.884 388.516C335.631 389.669 338.472 390.25 341.416 390.25H342.25V381.025H341.406C339.531 381.025 337.778 380.669 336.128 379.947C334.537 379.203 333.087 378.188 331.844 376.947C330.637 375.662 329.657 374.182 328.947 372.569C328.253 370.881 327.916 369.1 327.916 367.197C327.916 365.059 327.944 362.95 328.019 360.897C328.094 358.759 328.094 356.678 328.019 354.663C327.986 352.653 327.813 350.648 327.503 348.663C327.205 346.704 326.676 344.788 325.928 342.953C324.469 339.403 322.083 336.311 319.019 334C322.086 331.69 324.476 328.598 325.938 325.047C326.688 323.247 327.203 321.363 327.512 319.403C327.822 317.434 327.991 315.438 328.028 313.403C328.103 311.341 328.103 309.259 328.028 307.159C327.953 305.059 327.916 302.941 327.916 300.803C327.899 298.116 328.669 295.483 330.13 293.228C331.591 290.972 333.679 289.193 336.138 288.109C337.793 287.35 339.595 286.963 341.416 286.975H342.25ZM379.75 381.025V390.25H380.594C383.528 390.25 386.369 389.669 389.116 388.516C391.862 387.362 394.291 385.703 396.381 383.547C398.472 381.391 400.019 379.047 401.003 376.487C401.941 373.994 402.55 371.388 402.859 368.697V368.678C403.122 366.053 403.197 363.363 403.084 360.588C402.972 357.869 402.916 355.15 402.916 352.441C402.916 350.538 403.291 348.756 404.013 347.078V347.069C405.387 343.793 407.949 341.157 411.184 339.691C412.834 338.971 414.616 338.604 416.416 338.613H417.25V329.388H416.406C414.569 329.388 412.834 329.013 411.184 328.253L411.175 328.244C409.565 327.55 408.114 326.536 406.909 325.263L406.891 325.244C405.652 323.996 404.673 322.514 404.013 320.884V320.866C403.28 319.193 402.903 317.386 402.906 315.559C402.906 312.841 402.962 310.122 403.075 307.413C403.192 304.692 403.117 301.966 402.85 299.256C402.546 296.617 401.926 294.014 401.003 291.522V291.513C399.956 288.869 398.38 286.467 396.372 284.453C394.312 282.321 391.84 280.631 389.106 279.484C386.408 278.338 383.506 277.749 380.575 277.75H379.75V286.975H380.594C382.469 286.975 384.222 287.331 385.863 288.053C387.494 288.822 388.919 289.816 390.147 291.053C391.338 292.309 392.303 293.772 393.044 295.431C393.738 297.119 394.075 298.9 394.075 300.803C394.075 302.941 394.047 305.041 393.972 307.103C393.897 309.241 393.897 311.322 393.972 313.338C394.009 315.419 394.178 317.416 394.487 319.338C394.797 321.344 395.322 323.238 396.062 325.047C397.525 328.597 399.914 331.69 402.981 334C399.914 336.31 397.525 339.403 396.062 342.953C395.32 344.767 394.791 346.661 394.487 348.597C394.178 350.566 394.009 352.562 393.972 354.597C393.896 356.677 393.896 358.76 393.972 360.841C394.047 362.941 394.084 365.059 394.084 367.197C394.099 369.884 393.329 372.516 391.869 374.771C390.408 377.026 388.321 378.806 385.863 379.891C384.207 380.65 382.405 381.037 380.584 381.025H379.75Z" fill="white"/>
</g>
<defs>
<radialGradient id="paint0_radial_1055_102" cx="0" cy="0" r="1" gradientUnits="userSpaceOnUse" gradientTransform="translate(300.47 301.53) rotate(90) scale(300.47)">
<stop/>
<stop offset="1" stop-opacity="0"/>
</radialGradient>
<linearGradient id="paint1_linear_1055_102" x1="221.596" y1="146.131" x2="490.225" y2="386.278" gradientUnits="userSpaceOnUse">
<stop stop-color="#41D1FF"/>
<stop offset="1" stop-color="#BD34FE"/>
</linearGradient>
<linearGradient id="paint2_linear_1055_102" x1="141" y1="112" x2="491" y2="462" gradientUnits="userSpaceOnUse">
<stop stop-color="#12C2E9"/>
<stop offset="0.503125" stop-color="#C471ED"/>
<stop offset="1" stop-color="#F64F59"/>
</linearGradient>
<clipPath id="clip0_1055_102">
<rect width="600" height="600" fill="white"/>
</clipPath>
</defs>
</svg>
